<svg width="3840" height="2160" xmlns="http://www.w3.org/2000/svg"><path d="M2216,1121L2165,1262L2563,1190Z" fill="rgb(64,64,64)" stroke="rgb(64,64,64)" stroke-width="1.51"></path><path d="M2165,1262L2298,1490L2563,1190Z" fill="rgb(67,67,67)" stroke="rgb(67,67,67)" stroke-width="1.51"></path><path d="M2563,1190L2338,969L2216,1121Z" fill="rgb(62,62,62)" stroke="rgb(62,62,62)" stroke-width="1.51"></path><path d="M2298,1490L2683,1290L2563,1190Z" fill="rgb(69,69,69)" stroke="rgb(69,69,69)" stroke-width="1.51"></path><path d="M2563,1190L2500,831L2338,969Z" fill="rgb(61,61,61)" stroke="rgb(61,61,61)" stroke-width="1.51"></path><path d="M2905,1134L2500,831L2563,1190Z" fill="rgb(65,65,65)" stroke="rgb(65,65,65)" stroke-width="1.51"></path><path d="M2298,1490L2771,1555L2683,1290Z" fill="rgb(72,72,72)" stroke="rgb(72,72,72)" stroke-width="1.51"></path><path d="M2298,1490L2479,1762L2771,1555Z" fill="rgb(74,74,74)" stroke="rgb(74,74,74)" stroke-width="1.51"></path><path d="M2683,1290L2905,1134L2563,1190Z" fill="rgb(68,68,68)" stroke="rgb(68,68,68)" stroke-width="1.51"></path><path d="M2771,1555L2904,1361L2683,1290Z" fill="rgb(73,73,73)" stroke="rgb(73,73,73)" stroke-width="1.51"></path><path d="M2904,1361L2905,1134L2683,1290Z" fill="rgb(71,71,71)" stroke="rgb(71,71,71)" stroke-width="1.51"></path><path d="M2298,1490L2093,1804L2479,1762Z" fill="rgb(73,73,73)" stroke="rgb(73,73,73)" stroke-width="1.51"></path><path d="M2165,1262L2093,1804L2298,1490Z" fill="rgb(69,69,69)" stroke="rgb(69,69,69)" stroke-width="1.51"></path><path d="M2216,1121L1790,967L2165,1262Z" fill="rgb(59,59,59)" stroke="rgb(59,59,59)" stroke-width="1.51"></path><path d="M2165,1262L1685,1485L2093,1804Z" fill="rgb(66,66,66)" stroke="rgb(66,66,66)" stroke-width="1.51"></path><path d="M2338,969L1862,899L2216,1121Z" fill="rgb(57,57,57)" stroke="rgb(57,57,57)" stroke-width="1.51"></path><path d="M1932,722L1862,899L2338,969Z" fill="rgb(54,54,54)" stroke="rgb(54,54,54)" stroke-width="1.51"></path><path d="M2291,511L1932,722L2338,969Z" fill="rgb(53,53,53)" stroke="rgb(53,53,53)" stroke-width="1.51"></path><path d="M2905,1134L2584,657L2500,831Z" fill="rgb(61,61,61)" stroke="rgb(61,61,61)" stroke-width="1.51"></path><path d="M2479,1762L2548,1868L2771,1555Z" fill="rgb(77,77,77)" stroke="rgb(77,77,77)" stroke-width="1.51"></path><path d="M2486,1953L2548,1868L2479,1762Z" fill="rgb(79,79,79)" stroke="rgb(79,79,79)" stroke-width="1.51"></path><path d="M1862,899L1790,967L2216,1121Z" fill="rgb(55,55,55)" stroke="rgb(55,55,55)" stroke-width="1.51"></path><path d="M1862,899L1423,647L1790,967Z" fill="rgb(49,49,49)" stroke="rgb(49,49,49)" stroke-width="1.51"></path><path d="M2291,511L2338,969L2500,831Z" fill="rgb(56,56,56)" stroke="rgb(56,56,56)" stroke-width="1.51"></path><path d="M2093,1804L2486,1953L2479,1762Z" fill="rgb(77,77,77)" stroke="rgb(77,77,77)" stroke-width="1.51"></path><path d="M1790,967L1685,1485L2165,1262Z" fill="rgb(60,60,60)" stroke="rgb(60,60,60)" stroke-width="1.51"></path><path d="M2584,657L2291,511L2500,831Z" fill="rgb(55,55,55)" stroke="rgb(55,55,55)" stroke-width="1.51"></path><path d="M2771,1555L3010,1662L2904,1361Z" fill="rgb(77,77,77)" stroke="rgb(77,77,77)" stroke-width="1.51"></path><path d="M2904,1361L3167,1217L2905,1134Z" fill="rgb(72,72,72)" stroke="rgb(72,72,72)" stroke-width="1.51"></path><path d="M2548,1868L3010,1662L2771,1555Z" fill="rgb(79,79,79)" stroke="rgb(79,79,79)" stroke-width="1.51"></path><path d="M3053,1926L3010,1662L2548,1868Z" fill="rgb(82,82,82)" stroke="rgb(82,82,82)" stroke-width="1.51"></path><path d="M2584,657L2639,514L2291,511Z" fill="rgb(53,53,53)" stroke="rgb(53,53,53)" stroke-width="1.51"></path><path d="M2955,552L2639,514L2584,657Z" fill="rgb(56,56,56)" stroke="rgb(56,56,56)" stroke-width="1.51"></path><path d="M2905,1134L2955,552L2584,657Z" fill="rgb(61,61,61)" stroke="rgb(61,61,61)" stroke-width="1.51"></path><path d="M3010,1662L3167,1217L2904,1361Z" fill="rgb(76,76,76)" stroke="rgb(76,76,76)" stroke-width="1.51"></path><path d="M1685,1485L1842,1889L2093,1804Z" fill="rgb(69,69,69)" stroke="rgb(69,69,69)" stroke-width="1.51"></path><path d="M2093,1804L2338,2183L2486,1953Z" fill="rgb(79,79,79)" stroke="rgb(79,79,79)" stroke-width="1.51"></path><path d="M1685,1485L1670,1789L1842,1889Z" fill="rgb(68,68,68)" stroke="rgb(68,68,68)" stroke-width="1.51"></path><path d="M1720,2255L2049,2076L1842,1889Z" fill="rgb(76,76,76)" stroke="rgb(76,76,76)" stroke-width="1.51"></path><path d="M1842,1889L2049,2076L2093,1804Z" fill="rgb(75,75,75)" stroke="rgb(75,75,75)" stroke-width="1.51"></path><path d="M2291,511L2046,404L1932,722Z" fill="rgb(49,49,49)" stroke="rgb(49,49,49)" stroke-width="1.51"></path><path d="M1423,647L1347,950L1790,967Z" fill="rgb(48,48,48)" stroke="rgb(48,48,48)" stroke-width="1.51"></path><path d="M2346,171L2046,404L2291,511Z" fill="rgb(46,46,46)" stroke="rgb(46,46,46)" stroke-width="1.51"></path><path d="M3067,632L2955,552L2905,1134Z" fill="rgb(63,63,63)" stroke="rgb(63,63,63)" stroke-width="1.51"></path><path d="M2097,6L1870,326L2046,404Z" fill="rgb(40,40,40)" stroke="rgb(40,40,40)" stroke-width="1.51"></path><path d="M2049,2076L2338,2183L2093,1804Z" fill="rgb(78,78,78)" stroke="rgb(78,78,78)" stroke-width="1.51"></path><path d="M2784,2255L3053,1926L2548,1868Z" fill="rgb(85,85,85)" stroke="rgb(85,85,85)" stroke-width="1.51"></path><path d="M3167,1217L3067,632L2905,1134Z" fill="rgb(67,67,67)" stroke="rgb(67,67,67)" stroke-width="1.51"></path><path d="M3010,1662L3452,1496L3167,1217Z" fill="rgb(79,79,79)" stroke="rgb(79,79,79)" stroke-width="1.51"></path><path d="M2784,2255L2548,1868L2486,1953Z" fill="rgb(84,84,84)" stroke="rgb(84,84,84)" stroke-width="1.51"></path><path d="M1685,1485L1361,1746L1670,1789Z" fill="rgb(65,65,65)" stroke="rgb(65,65,65)" stroke-width="1.51"></path><path d="M1790,967L1384,1390L1685,1485Z" fill="rgb(57,57,57)" stroke="rgb(57,57,57)" stroke-width="1.51"></path><path d="M1347,950L1384,1390L1790,967Z" fill="rgb(52,52,52)" stroke="rgb(52,52,52)" stroke-width="1.51"></path><path d="M1670,1789L1570,1913L1842,1889Z" fill="rgb(70,70,70)" stroke="rgb(70,70,70)" stroke-width="1.51"></path><path d="M2049,2076L2113,2444L2338,2183Z" fill="rgb(81,81,81)" stroke="rgb(81,81,81)" stroke-width="1.51"></path><path d="M1361,1746L1570,1913L1670,1789Z" fill="rgb(67,67,67)" stroke="rgb(67,67,67)" stroke-width="1.51"></path><path d="M3067,632L3042,282L2955,552Z" fill="rgb(58,58,58)" stroke="rgb(58,58,58)" stroke-width="1.51"></path><path d="M3167,1217L3203,622L3067,632Z" fill="rgb(66,66,66)" stroke="rgb(66,66,66)" stroke-width="1.51"></path><path d="M3053,1926L3280,1787L3010,1662Z" fill="rgb(84,84,84)" stroke="rgb(84,84,84)" stroke-width="1.51"></path><path d="M3167,1217L3554,901L3203,622Z" fill="rgb(69,69,69)" stroke="rgb(69,69,69)" stroke-width="1.51"></path><path d="M2046,404L1870,326L1932,722Z" fill="rgb(46,46,46)" stroke="rgb(46,46,46)" stroke-width="1.51"></path><path d="M2346,171L2291,511L2639,514Z" fill="rgb(49,49,49)" stroke="rgb(49,49,49)" stroke-width="1.51"></path><path d="M1423,647L1862,899L1932,722Z" fill="rgb(48,48,48)" stroke="rgb(48,48,48)" stroke-width="1.51"></path><path d="M2338,2183L2784,2255L2486,1953Z" fill="rgb(85,85,85)" stroke="rgb(85,85,85)" stroke-width="1.51"></path><path d="M3053,1926L3336,1907L3280,1787Z" fill="rgb(87,87,87)" stroke="rgb(87,87,87)" stroke-width="1.51"></path><path d="M2650,190L2346,171L2639,514Z" fill="rgb(47,47,47)" stroke="rgb(47,47,47)" stroke-width="1.51"></path><path d="M2650,190L2639,514L3042,282Z" fill="rgb(51,51,51)" stroke="rgb(51,51,51)" stroke-width="1.51"></path><path d="M3042,282L2639,514L2955,552Z" fill="rgb(56,56,56)" stroke="rgb(56,56,56)" stroke-width="1.51"></path><path d="M3280,1787L3452,1496L3010,1662Z" fill="rgb(83,83,83)" stroke="rgb(83,83,83)" stroke-width="1.51"></path><path d="M1174,1558L1361,1746L1384,1390Z" fill="rgb(59,59,59)" stroke="rgb(59,59,59)" stroke-width="1.51"></path><path d="M1384,1390L1361,1746L1685,1485Z" fill="rgb(61,61,61)" stroke="rgb(61,61,61)" stroke-width="1.51"></path><path d="M1582,395L1423,647L1932,722Z" fill="rgb(44,44,44)" stroke="rgb(44,44,44)" stroke-width="1.51"></path><path d="M1192,1186L1221,1406L1384,1390Z" fill="rgb(55,55,55)" stroke="rgb(55,55,55)" stroke-width="1.51"></path><path d="M1192,1186L1384,1390L1347,950Z" fill="rgb(52,52,52)" stroke="rgb(52,52,52)" stroke-width="1.51"></path><path d="M3638,1723L3524,1492L3452,1496Z" fill="rgb(85,85,85)" stroke="rgb(85,85,85)" stroke-width="1.51"></path><path d="M3181,2340L3336,1907L3053,1926Z" fill="rgb(91,91,91)" stroke="rgb(91,91,91)" stroke-width="1.51"></path><path d="M1709,266L1582,395L1870,326Z" fill="rgb(39,39,39)" stroke="rgb(39,39,39)" stroke-width="1.51"></path><path d="M1870,326L1582,395L1932,722Z" fill="rgb(44,44,44)" stroke="rgb(44,44,44)" stroke-width="1.51"></path><path d="M3624,1120L3554,901L3167,1217Z" fill="rgb(74,74,74)" stroke="rgb(74,74,74)" stroke-width="1.51"></path><path d="M3638,1723L3452,1496L3280,1787Z" fill="rgb(86,86,86)" stroke="rgb(86,86,86)" stroke-width="1.51"></path><path d="M894,1011L1192,1186L1347,950Z" fill="rgb(48,48,48)" stroke="rgb(48,48,48)" stroke-width="1.51"></path><path d="M3203,622L3042,282L3067,632Z" fill="rgb(59,59,59)" stroke="rgb(59,59,59)" stroke-width="1.51"></path><path d="M1852,-5L1709,266L1870,326Z" fill="rgb(36,36,36)" stroke="rgb(36,36,36)" stroke-width="1.51"></path><path d="M1503,2352L1720,2255L1570,1913Z" fill="rgb(74,74,74)" stroke="rgb(74,74,74)" stroke-width="1.51"></path><path d="M1570,1913L1720,2255L1842,1889Z" fill="rgb(72,72,72)" stroke="rgb(72,72,72)" stroke-width="1.51"></path><path d="M2338,2183L2581,2612L2784,2255Z" fill="rgb(86,86,86)" stroke="rgb(86,86,86)" stroke-width="1.51"></path><path d="M1720,2255L2113,2444L2049,2076Z" fill="rgb(79,79,79)" stroke="rgb(79,79,79)" stroke-width="1.51"></path><path d="M1221,1406L1174,1558L1384,1390Z" fill="rgb(57,57,57)" stroke="rgb(57,57,57)" stroke-width="1.51"></path><path d="M1361,1746L1133,1905L1570,1913Z" fill="rgb(65,65,65)" stroke="rgb(65,65,65)" stroke-width="1.51"></path><path d="M929,1289L1174,1558L1221,1406Z" fill="rgb(55,55,55)" stroke="rgb(55,55,55)" stroke-width="1.51"></path><path d="M3624,1120L3167,1217L3452,1496Z" fill="rgb(78,78,78)" stroke="rgb(78,78,78)" stroke-width="1.51"></path><path d="M3203,622L3369,263L3042,282Z" fill="rgb(57,57,57)" stroke="rgb(57,57,57)" stroke-width="1.51"></path><path d="M1423,647L1301,623L1347,950Z" fill="rgb(44,44,44)" stroke="rgb(44,44,44)" stroke-width="1.51"></path><path d="M1582,395L1301,623L1423,647Z" fill="rgb(41,41,41)" stroke="rgb(41,41,41)" stroke-width="1.51"></path><path d="M1052,322L1301,623L1582,395Z" fill="rgb(38,38,38)" stroke="rgb(38,38,38)" stroke-width="1.51"></path><path d="M3554,901L3389,537L3203,622Z" fill="rgb(65,65,65)" stroke="rgb(65,65,65)" stroke-width="1.51"></path><path d="M3524,1492L3624,1120L3452,1496Z" fill="rgb(81,81,81)" stroke="rgb(81,81,81)" stroke-width="1.51"></path><path d="M2325,-111L2346,171L2650,190Z" fill="rgb(40,40,40)" stroke="rgb(40,40,40)" stroke-width="1.51"></path><path d="M2325,-111L2097,6L2346,171Z" fill="rgb(36,36,36)" stroke="rgb(36,36,36)" stroke-width="1.51"></path><path d="M2346,171L2097,6L2046,404Z" fill="rgb(40,40,40)" stroke="rgb(40,40,40)" stroke-width="1.51"></path><path d="M1720,2255L2045,2519L2113,2444Z" fill="rgb(79,79,79)" stroke="rgb(79,79,79)" stroke-width="1.51"></path><path d="M2113,2444L2404,2616L2338,2183Z" fill="rgb(83,83,83)" stroke="rgb(83,83,83)" stroke-width="1.51"></path><path d="M3524,1492L3787,1335L3624,1120Z" fill="rgb(81,81,81)" stroke="rgb(81,81,81)" stroke-width="1.51"></path><path d="M3336,1907L3638,1723L3280,1787Z" fill="rgb(88,88,88)" stroke="rgb(88,88,88)" stroke-width="1.51"></path><path d="M3708,1932L3638,1723L3336,1907Z" fill="rgb(91,91,91)" stroke="rgb(91,91,91)" stroke-width="1.51"></path><path d="M2784,2255L3181,2340L3053,1926Z" fill="rgb(91,91,91)" stroke="rgb(91,91,91)" stroke-width="1.51"></path><path d="M3113,2433L3181,2340L2784,2255Z" fill="rgb(91,91,91)" stroke="rgb(91,91,91)" stroke-width="1.51"></path><path d="M2045,2519L2404,2616L2113,2444Z" fill="rgb(81,81,81)" stroke="rgb(81,81,81)" stroke-width="1.51"></path><path d="M2097,6L1852,-5L1870,326Z" fill="rgb(35,35,35)" stroke="rgb(35,35,35)" stroke-width="1.51"></path><path d="M1709,266L1388,21L1582,395Z" fill="rgb(35,35,35)" stroke="rgb(35,35,35)" stroke-width="1.51"></path><path d="M2676,-235L2325,-111L2650,190Z" fill="rgb(38,38,38)" stroke="rgb(38,38,38)" stroke-width="1.51"></path><path d="M2097,6L2185,-191L1852,-5Z" fill="rgb(33,33,33)" stroke="rgb(33,33,33)" stroke-width="1.51"></path><path d="M2404,2616L2581,2612L2338,2183Z" fill="rgb(84,84,84)" stroke="rgb(84,84,84)" stroke-width="1.51"></path><path d="M3731,2197L3708,1932L3336,1907Z" fill="rgb(94,94,94)" stroke="rgb(94,94,94)" stroke-width="1.51"></path><path d="M3087,2595L3113,2433L2784,2255Z" fill="rgb(90,90,90)" stroke="rgb(90,90,90)" stroke-width="1.51"></path><path d="M1174,1558L1133,1905L1361,1746Z" fill="rgb(62,62,62)" stroke="rgb(62,62,62)" stroke-width="1.51"></path><path d="M1720,2255L1750,2658L2045,2519Z" fill="rgb(77,77,77)" stroke="rgb(77,77,77)" stroke-width="1.51"></path><path d="M768,1729L1133,1905L1174,1558Z" fill="rgb(60,60,60)" stroke="rgb(60,60,60)" stroke-width="1.51"></path><path d="M1133,1905L1503,2352L1570,1913Z" fill="rgb(70,70,70)" stroke="rgb(70,70,70)" stroke-width="1.51"></path><path d="M3389,537L3369,263L3203,622Z" fill="rgb(60,60,60)" stroke="rgb(60,60,60)" stroke-width="1.51"></path><path d="M2882,-258L2676,-235L2650,190Z" fill="rgb(40,40,40)" stroke="rgb(40,40,40)" stroke-width="1.51"></path><path d="M3673,558L3369,263L3389,537Z" fill="rgb(62,62,62)" stroke="rgb(62,62,62)" stroke-width="1.51"></path><path d="M3673,558L3389,537L3554,901Z" fill="rgb(66,66,66)" stroke="rgb(66,66,66)" stroke-width="1.51"></path><path d="M3638,1723L3787,1335L3524,1492Z" fill="rgb(85,85,85)" stroke="rgb(85,85,85)" stroke-width="1.51"></path><path d="M3885,981L3673,558L3554,901Z" fill="rgb(71,71,71)" stroke="rgb(71,71,71)" stroke-width="1.51"></path><path d="M1192,1186L929,1289L1221,1406Z" fill="rgb(53,53,53)" stroke="rgb(53,53,53)" stroke-width="1.51"></path><path d="M894,1011L929,1289L1192,1186Z" fill="rgb(49,49,49)" stroke="rgb(49,49,49)" stroke-width="1.51"></path><path d="M2325,-111L2185,-191L2097,6Z" fill="rgb(35,35,35)" stroke="rgb(35,35,35)" stroke-width="1.51"></path><path d="M2125,-446L2185,-191L2466,-504Z" fill="rgb(35,35,35)" stroke="rgb(35,35,35)" stroke-width="1.51"></path><path d="M3885,981L3554,901L3624,1120Z" fill="rgb(75,75,75)" stroke="rgb(75,75,75)" stroke-width="1.51"></path><path d="M1301,623L894,1011L1347,950Z" fill="rgb(44,44,44)" stroke="rgb(44,44,44)" stroke-width="1.51"></path><path d="M932,415L894,1011L1301,623Z" fill="rgb(40,40,40)" stroke="rgb(40,40,40)" stroke-width="1.51"></path><path d="M3731,2197L3336,1907L3181,2340Z" fill="rgb(95,95,95)" stroke="rgb(95,95,95)" stroke-width="1.51"></path><path d="M3638,1723L4061,1663L3787,1335Z" fill="rgb(88,88,88)" stroke="rgb(88,88,88)" stroke-width="1.51"></path><path d="M3113,2433L3200,2635L3181,2340Z" fill="rgb(92,92,92)" stroke="rgb(92,92,92)" stroke-width="1.51"></path><path d="M2581,2612L3087,2595L2784,2255Z" fill="rgb(88,88,88)" stroke="rgb(88,88,88)" stroke-width="1.51"></path><path d="M2882,-258L2650,190L3042,282Z" fill="rgb(43,43,43)" stroke="rgb(43,43,43)" stroke-width="1.51"></path><path d="M2045,2519L1750,2658L2404,2616Z" fill="rgb(80,80,80)" stroke="rgb(80,80,80)" stroke-width="1.51"></path><path d="M3898,2768L3200,2635L2581,2612Z" fill="rgb(93,93,93)" stroke="rgb(93,93,93)" stroke-width="1.51"></path><path d="M2581,2612L3200,2635L3087,2595Z" fill="rgb(90,90,90)" stroke="rgb(90,90,90)" stroke-width="1.51"></path><path d="M1503,2352L1750,2658L1720,2255Z" fill="rgb(75,75,75)" stroke="rgb(75,75,75)" stroke-width="1.51"></path><path d="M1552,2676L1750,2658L1503,2352Z" fill="rgb(74,74,74)" stroke="rgb(74,74,74)" stroke-width="1.51"></path><path d="M3787,1335L3885,981L3624,1120Z" fill="rgb(79,79,79)" stroke="rgb(79,79,79)" stroke-width="1.51"></path><path d="M4172,947L3885,981L3787,1335Z" fill="rgb(78,78,78)" stroke="rgb(78,78,78)" stroke-width="1.51"></path><path d="M1852,-5L1388,21L1709,266Z" fill="rgb(31,31,31)" stroke="rgb(31,31,31)" stroke-width="1.51"></path><path d="M1403,-257L1388,21L1852,-5Z" fill="rgb(27,27,27)" stroke="rgb(27,27,27)" stroke-width="1.51"></path><path d="M2466,-504L2185,-191L2325,-111Z" fill="rgb(36,36,36)" stroke="rgb(36,36,36)" stroke-width="1.51"></path><path d="M3334,-277L2882,-258L3042,282Z" fill="rgb(43,43,43)" stroke="rgb(43,43,43)" stroke-width="1.51"></path><path d="M3334,-277L3042,282L3369,263Z" fill="rgb(48,48,48)" stroke="rgb(48,48,48)" stroke-width="1.51"></path><path d="M3087,2595L3200,2635L3113,2433Z" fill="rgb(92,92,92)" stroke="rgb(92,92,92)" stroke-width="1.51"></path><path d="M3898,2768L2581,2612L2404,2616Z" fill="rgb(90,90,90)" stroke="rgb(90,90,90)" stroke-width="1.51"></path><path d="M1388,21L1052,322L1582,395Z" fill="rgb(33,33,33)" stroke="rgb(33,33,33)" stroke-width="1.51"></path><path d="M1133,1905L1037,2190L1503,2352Z" fill="rgb(70,70,70)" stroke="rgb(70,70,70)" stroke-width="1.51"></path><path d="M917,2106L1037,2190L1133,1905Z" fill="rgb(66,66,66)" stroke="rgb(66,66,66)" stroke-width="1.51"></path><path d="M768,1729L1174,1558L929,1289Z" fill="rgb(55,55,55)" stroke="rgb(55,55,55)" stroke-width="1.51"></path><path d="M1750,2658L3898,2768L2404,2616Z" fill="rgb(87,87,87)" stroke="rgb(87,87,87)" stroke-width="1.51"></path><path d="M1118,2523L1552,2676L1503,2352Z" fill="rgb(72,72,72)" stroke="rgb(72,72,72)" stroke-width="1.51"></path><path d="M3708,1932L4061,1663L3638,1723Z" fill="rgb(92,92,92)" stroke="rgb(92,92,92)" stroke-width="1.51"></path><path d="M3645,2557L3731,2197L3181,2340Z" fill="rgb(96,96,96)" stroke="rgb(96,96,96)" stroke-width="1.51"></path><path d="M721,82L932,415L1052,322Z" fill="rgb(30,30,30)" stroke="rgb(30,30,30)" stroke-width="1.51"></path><path d="M1052,322L932,415L1301,623Z" fill="rgb(36,36,36)" stroke="rgb(36,36,36)" stroke-width="1.51"></path><path d="M610,1547L768,1729L929,1289Z" fill="rgb(53,53,53)" stroke="rgb(53,53,53)" stroke-width="1.51"></path><path d="M616,1204L929,1289L894,1011Z" fill="rgb(47,47,47)" stroke="rgb(47,47,47)" stroke-width="1.51"></path><path d="M932,415L728,903L894,1011Z" fill="rgb(40,40,40)" stroke="rgb(40,40,40)" stroke-width="1.51"></path><path d="M1037,2190L1118,2523L1503,2352Z" fill="rgb(70,70,70)" stroke="rgb(70,70,70)" stroke-width="1.51"></path><path d="M768,1729L917,2106L1133,1905Z" fill="rgb(62,62,62)" stroke="rgb(62,62,62)" stroke-width="1.51"></path><path d="M3673,558L3585,76L3369,263Z" fill="rgb(57,57,57)" stroke="rgb(57,57,57)" stroke-width="1.51"></path><path d="M3905,333L3585,76L3673,558Z" fill="rgb(60,60,60)" stroke="rgb(60,60,60)" stroke-width="1.51"></path><path d="M2185,-191L2125,-446L1852,-5Z" fill="rgb(33,33,33)" stroke="rgb(33,33,33)" stroke-width="1.51"></path><path d="M2466,-504L2325,-111L2676,-235Z" fill="rgb(37,37,37)" stroke="rgb(37,37,37)" stroke-width="1.51"></path><path d="M4011,2063L4061,1663L3708,1932Z" fill="rgb(94,94,94)" stroke="rgb(94,94,94)" stroke-width="1.51"></path><path d="M3885,981L3999,645L3673,558Z" fill="rgb(71,71,71)" stroke="rgb(71,71,71)" stroke-width="1.51"></path><path d="M4172,947L3999,645L3885,981Z" fill="rgb(73,73,73)" stroke="rgb(73,73,73)" stroke-width="1.51"></path><path d="M2882,-258L2686,-456L2676,-235Z" fill="rgb(40,40,40)" stroke="rgb(40,40,40)" stroke-width="1.51"></path><path d="M2990,-568L2686,-456L2882,-258Z" fill="rgb(41,41,41)" stroke="rgb(41,41,41)" stroke-width="1.51"></path><path d="M4061,1663L4073,1635L3787,1335Z" fill="rgb(88,88,88)" stroke="rgb(88,88,88)" stroke-width="1.51"></path><path d="M728,903L616,1204L894,1011Z" fill="rgb(43,43,43)" stroke="rgb(43,43,43)" stroke-width="1.51"></path><path d="M2686,-456L2466,-504L2676,-235Z" fill="rgb(39,39,39)" stroke="rgb(39,39,39)" stroke-width="1.51"></path><path d="M763,2225L1118,2523L1037,2190Z" fill="rgb(67,67,67)" stroke="rgb(67,67,67)" stroke-width="1.51"></path><path d="M768,1729L647,1911L917,2106Z" fill="rgb(60,60,60)" stroke="rgb(60,60,60)" stroke-width="1.51"></path><path d="M917,2106L763,2225L1037,2190Z" fill="rgb(67,67,67)" stroke="rgb(67,67,67)" stroke-width="1.51"></path><path d="M616,1204L610,1547L929,1289Z" fill="rgb(49,49,49)" stroke="rgb(49,49,49)" stroke-width="1.51"></path><path d="M3999,645L3905,333L3673,558Z" fill="rgb(67,67,67)" stroke="rgb(67,67,67)" stroke-width="1.51"></path><path d="M932,415L652,393L728,903Z" fill="rgb(35,35,35)" stroke="rgb(35,35,35)" stroke-width="1.51"></path><path d="M363,975L427,1253L616,1204Z" fill="rgb(41,41,41)" stroke="rgb(41,41,41)" stroke-width="1.51"></path><path d="M1388,21L1044,49L1052,322Z" fill="rgb(28,28,28)" stroke="rgb(28,28,28)" stroke-width="1.51"></path><path d="M1026,-15L1044,49L1388,21Z" fill="rgb(24,24,24)" stroke="rgb(24,24,24)" stroke-width="1.51"></path><path d="M1566,-392L1403,-257L1852,-5Z" fill="rgb(28,28,28)" stroke="rgb(28,28,28)" stroke-width="1.51"></path><path d="M3663,-229L3334,-277L3585,76Z" fill="rgb(48,48,48)" stroke="rgb(48,48,48)" stroke-width="1.51"></path><path d="M3585,76L3334,-277L3369,263Z" fill="rgb(47,47,47)" stroke="rgb(47,47,47)" stroke-width="1.51"></path><path d="M3731,2197L4011,2063L3708,1932Z" fill="rgb(97,97,97)" stroke="rgb(97,97,97)" stroke-width="1.51"></path><path d="M3200,2635L3645,2557L3181,2340Z" fill="rgb(94,94,94)" stroke="rgb(94,94,94)" stroke-width="1.51"></path><path d="M3999,645L4234,466L3905,333Z" fill="rgb(66,66,66)" stroke="rgb(66,66,66)" stroke-width="1.51"></path><path d="M4311,1473L4172,947L3787,1335Z" fill="rgb(82,82,82)" stroke="rgb(82,82,82)" stroke-width="1.51"></path><path d="M3934,2379L4011,2063L3731,2197Z" fill="rgb(100,100,100)" stroke="rgb(100,100,100)" stroke-width="1.51"></path><path d="M4061,1663L4311,1473L4073,1635Z" fill="rgb(89,89,89)" stroke="rgb(89,89,89)" stroke-width="1.51"></path><path d="M1681,-455L1852,-5L2125,-446Z" fill="rgb(31,31,31)" stroke="rgb(31,31,31)" stroke-width="1.51"></path><path d="M1681,-455L1566,-392L1852,-5Z" fill="rgb(29,29,29)" stroke="rgb(29,29,29)" stroke-width="1.51"></path><path d="M610,1547L647,1911L768,1729Z" fill="rgb(55,55,55)" stroke="rgb(55,55,55)" stroke-width="1.51"></path><path d="M2466,-504L1681,-455L2125,-446Z" fill="rgb(33,33,33)" stroke="rgb(33,33,33)" stroke-width="1.51"></path><path d="M721,82L652,393L932,415Z" fill="rgb(29,29,29)" stroke="rgb(29,29,29)" stroke-width="1.51"></path><path d="M1403,-257L1026,-15L1388,21Z" fill="rgb(25,25,25)" stroke="rgb(25,25,25)" stroke-width="1.51"></path><path d="M721,82L1026,-15L778,-177Z" fill="rgb(21,21,21)" stroke="rgb(21,21,21)" stroke-width="1.51"></path><path d="M647,1911L763,2225L917,2106Z" fill="rgb(64,64,64)" stroke="rgb(64,64,64)" stroke-width="1.51"></path><path d="M4172,947L4180,699L3999,645Z" fill="rgb(71,71,71)" stroke="rgb(71,71,71)" stroke-width="1.51"></path><path d="M721,82L1052,322L1044,49Z" fill="rgb(26,26,26)" stroke="rgb(26,26,26)" stroke-width="1.51"></path><path d="M3645,2557L3934,2379L3731,2197Z" fill="rgb(99,99,99)" stroke="rgb(99,99,99)" stroke-width="1.51"></path><path d="M3334,-277L2990,-568L2882,-258Z" fill="rgb(43,43,43)" stroke="rgb(43,43,43)" stroke-width="1.51"></path><path d="M2686,-456L2990,-568L2466,-504Z" fill="rgb(40,40,40)" stroke="rgb(40,40,40)" stroke-width="1.51"></path><path d="M2466,-504L1084,-493L1681,-455Z" fill="rgb(30,30,30)" stroke="rgb(30,30,30)" stroke-width="1.51"></path><path d="M616,1204L427,1253L610,1547Z" fill="rgb(46,46,46)" stroke="rgb(46,46,46)" stroke-width="1.51"></path><path d="M610,1547L249,1990L647,1911Z" fill="rgb(54,54,54)" stroke="rgb(54,54,54)" stroke-width="1.51"></path><path d="M393,915L616,1204L728,903Z" fill="rgb(40,40,40)" stroke="rgb(40,40,40)" stroke-width="1.51"></path><path d="M4073,1635L4311,1473L3787,1335Z" fill="rgb(86,86,86)" stroke="rgb(86,86,86)" stroke-width="1.51"></path><path d="M4649,668L4234,466L4180,699Z" fill="rgb(68,68,68)" stroke="rgb(68,68,68)" stroke-width="1.51"></path><path d="M4469,2024L4311,1473L4061,1663Z" fill="rgb(91,91,91)" stroke="rgb(91,91,91)" stroke-width="1.51"></path><path d="M4130,2122L4061,1663L4011,2063Z" fill="rgb(96,96,96)" stroke="rgb(96,96,96)" stroke-width="1.51"></path><path d="M3934,2379L4130,2122L4011,2063Z" fill="rgb(100,100,100)" stroke="rgb(100,100,100)" stroke-width="1.51"></path><path d="M3775,-245L3663,-229L3585,76Z" fill="rgb(49,49,49)" stroke="rgb(49,49,49)" stroke-width="1.51"></path><path d="M3334,-277L3426,-581L2990,-568Z" fill="rgb(45,45,45)" stroke="rgb(45,45,45)" stroke-width="1.51"></path><path d="M3997,46L3585,76L3905,333Z" fill="rgb(56,56,56)" stroke="rgb(56,56,56)" stroke-width="1.51"></path><path d="M344,722L393,915L728,903Z" fill="rgb(35,35,35)" stroke="rgb(35,35,35)" stroke-width="1.51"></path><path d="M652,393L344,722L728,903Z" fill="rgb(34,34,34)" stroke="rgb(34,34,34)" stroke-width="1.51"></path><path d="M1026,-15L721,82L1044,49Z" fill="rgb(23,23,23)" stroke="rgb(23,23,23)" stroke-width="1.51"></path><path d="M778,-177L1026,-15L1084,-493Z" fill="rgb(22,22,22)" stroke="rgb(22,22,22)" stroke-width="1.51"></path><path d="M4398,963L4180,699L4172,947Z" fill="rgb(73,73,73)" stroke="rgb(73,73,73)" stroke-width="1.51"></path><path d="M4180,699L4234,466L3999,645Z" fill="rgb(68,68,68)" stroke="rgb(68,68,68)" stroke-width="1.51"></path><path d="M393,915L363,975L616,1204Z" fill="rgb(39,39,39)" stroke="rgb(39,39,39)" stroke-width="1.51"></path><path d="M344,722L363,975L393,915Z" fill="rgb(33,33,33)" stroke="rgb(33,33,33)" stroke-width="1.51"></path><path d="M4358,210L3997,46L3905,333Z" fill="rgb(57,57,57)" stroke="rgb(57,57,57)" stroke-width="1.51"></path><path d="M4311,1473L4398,963L4172,947Z" fill="rgb(79,79,79)" stroke="rgb(79,79,79)" stroke-width="1.51"></path><path d="M3997,46L3775,-245L3585,76Z" fill="rgb(50,50,50)" stroke="rgb(50,50,50)" stroke-width="1.51"></path><path d="M3663,-229L3628,-425L3334,-277Z" fill="rgb(48,48,48)" stroke="rgb(48,48,48)" stroke-width="1.51"></path><path d="M197,615L344,722L652,393Z" fill="rgb(29,29,29)" stroke="rgb(29,29,29)" stroke-width="1.51"></path><path d="M3775,-245L3628,-425L3663,-229Z" fill="rgb(50,50,50)" stroke="rgb(50,50,50)" stroke-width="1.51"></path><path d="M679,2532L821,2689L1118,2523Z" fill="rgb(66,66,66)" stroke="rgb(66,66,66)" stroke-width="1.51"></path><path d="M1118,2523L821,2689L1552,2676Z" fill="rgb(69,69,69)" stroke="rgb(69,69,69)" stroke-width="1.51"></path><path d="M679,2532L1118,2523L763,2225Z" fill="rgb(66,66,66)" stroke="rgb(66,66,66)" stroke-width="1.51"></path><path d="M679,2532L763,2225L473,2356Z" fill="rgb(63,63,63)" stroke="rgb(63,63,63)" stroke-width="1.51"></path><path d="M473,2356L647,1911L249,1990Z" fill="rgb(58,58,58)" stroke="rgb(58,58,58)" stroke-width="1.51"></path><path d="M473,2356L763,2225L647,1911Z" fill="rgb(62,62,62)" stroke="rgb(62,62,62)" stroke-width="1.51"></path><path d="M3628,-425L3426,-581L3334,-277Z" fill="rgb(47,47,47)" stroke="rgb(47,47,47)" stroke-width="1.51"></path><path d="M3934,2379L4178,2381L4130,2122Z" fill="rgb(100,100,100)" stroke="rgb(100,100,100)" stroke-width="1.51"></path><path d="M4130,2122L4469,2024L4061,1663Z" fill="rgb(95,95,95)" stroke="rgb(95,95,95)" stroke-width="1.51"></path><path d="M4311,1473L4610,1295L4398,963Z" fill="rgb(82,82,82)" stroke="rgb(82,82,82)" stroke-width="1.51"></path><path d="M4164,2462L4178,2381L3934,2379Z" fill="rgb(100,100,100)" stroke="rgb(100,100,100)" stroke-width="1.51"></path><path d="M721,82L442,114L652,393Z" fill="rgb(24,24,24)" stroke="rgb(24,24,24)" stroke-width="1.51"></path><path d="M1084,-493L1026,-15L1403,-257Z" fill="rgb(24,24,24)" stroke="rgb(24,24,24)" stroke-width="1.51"></path><path d="M1084,-493L1403,-257L1566,-392Z" fill="rgb(25,25,25)" stroke="rgb(25,25,25)" stroke-width="1.51"></path><path d="M3645,2557L3898,2768L3934,2379Z" fill="rgb(100,100,100)" stroke="rgb(100,100,100)" stroke-width="1.51"></path><path d="M3200,2635L3898,2768L3645,2557Z" fill="rgb(97,97,97)" stroke="rgb(97,97,97)" stroke-width="1.51"></path><path d="M1552,2676L3898,2768L1750,2658Z" fill="rgb(84,84,84)" stroke="rgb(84,84,84)" stroke-width="1.51"></path><path d="M821,2689L3898,2768L1552,2676Z" fill="rgb(80,80,80)" stroke="rgb(80,80,80)" stroke-width="1.51"></path><path d="M3898,2768L4164,2462L3934,2379Z" fill="rgb(100,100,100)" stroke="rgb(100,100,100)" stroke-width="1.51"></path><path d="M1681,-455L1084,-493L1566,-392Z" fill="rgb(26,26,26)" stroke="rgb(26,26,26)" stroke-width="1.51"></path><path d="M2990,-568L1084,-493L2466,-504Z" fill="rgb(34,34,34)" stroke="rgb(34,34,34)" stroke-width="1.51"></path><path d="M249,1990L610,1547L91,1816Z" fill="rgb(50,50,50)" stroke="rgb(50,50,50)" stroke-width="1.51"></path><path d="M679,2532L378,2657L821,2689Z" fill="rgb(62,62,62)" stroke="rgb(62,62,62)" stroke-width="1.51"></path><path d="M4453,2415L4130,2122L4178,2381Z" fill="rgb(100,100,100)" stroke="rgb(100,100,100)" stroke-width="1.51"></path><path d="M4453,2415L4469,2024L4130,2122Z" fill="rgb(100,100,100)" stroke="rgb(100,100,100)" stroke-width="1.51"></path><path d="M529,-41L442,114L721,82Z" fill="rgb(18,18,18)" stroke="rgb(18,18,18)" stroke-width="1.51"></path><path d="M529,-41L721,82L778,-177Z" fill="rgb(18,18,18)" stroke="rgb(18,18,18)" stroke-width="1.51"></path><path d="M4659,1595L4610,1295L4311,1473Z" fill="rgb(86,86,86)" stroke="rgb(86,86,86)" stroke-width="1.51"></path><path d="M4459,269L4358,210L4234,466Z" fill="rgb(61,61,61)" stroke="rgb(61,61,61)" stroke-width="1.51"></path><path d="M82,1327L610,1547L427,1253Z" fill="rgb(44,44,44)" stroke="rgb(44,44,44)" stroke-width="1.51"></path><path d="M82,1327L427,1253L363,975Z" fill="rgb(38,38,38)" stroke="rgb(38,38,38)" stroke-width="1.51"></path><path d="M3775,-245L3816,-557L3628,-425Z" fill="rgb(50,50,50)" stroke="rgb(50,50,50)" stroke-width="1.51"></path><path d="M3997,46L4181,-91L3775,-245Z" fill="rgb(51,51,51)" stroke="rgb(51,51,51)" stroke-width="1.51"></path><path d="M4234,466L4358,210L3905,333Z" fill="rgb(62,62,62)" stroke="rgb(62,62,62)" stroke-width="1.51"></path><path d="M4459,269L4234,466L4606,358Z" fill="rgb(63,63,63)" stroke="rgb(63,63,63)" stroke-width="1.51"></path><path d="M637,-418L529,-41L778,-177Z" fill="rgb(18,18,18)" stroke="rgb(18,18,18)" stroke-width="1.51"></path><path d="M4358,210L4181,-91L3997,46Z" fill="rgb(53,53,53)" stroke="rgb(53,53,53)" stroke-width="1.51"></path><path d="M3628,-425L3816,-557L3426,-581Z" fill="rgb(49,49,49)" stroke="rgb(49,49,49)" stroke-width="1.51"></path><path d="M344,722L197,615L363,975Z" fill="rgb(31,31,31)" stroke="rgb(31,31,31)" stroke-width="1.51"></path><path d="M183,244L197,615L652,393Z" fill="rgb(26,26,26)" stroke="rgb(26,26,26)" stroke-width="1.51"></path><path d="M-144,1221L82,1327L363,975Z" fill="rgb(35,35,35)" stroke="rgb(35,35,35)" stroke-width="1.51"></path><path d="M4358,210L4483,-8L4181,-91Z" fill="rgb(52,52,52)" stroke="rgb(52,52,52)" stroke-width="1.51"></path><path d="M4649,668L4180,699L4398,963Z" fill="rgb(72,72,72)" stroke="rgb(72,72,72)" stroke-width="1.51"></path><path d="M4610,1295L4649,668L4398,963Z" fill="rgb(76,76,76)" stroke="rgb(76,76,76)" stroke-width="1.51"></path><path d="M4469,2024L4659,1595L4311,1473Z" fill="rgb(91,91,91)" stroke="rgb(91,91,91)" stroke-width="1.51"></path><path d="M4166,-388L3816,-557L3775,-245Z" fill="rgb(51,51,51)" stroke="rgb(51,51,51)" stroke-width="1.51"></path><path d="M289,-551L852,-499L1084,-493Z" fill="rgb(20,20,20)" stroke="rgb(20,20,20)" stroke-width="1.51"></path><path d="M1084,-493L852,-499L778,-177Z" fill="rgb(22,22,22)" stroke="rgb(22,22,22)" stroke-width="1.51"></path><path d="M71,1769L91,1816L610,1547Z" fill="rgb(47,47,47)" stroke="rgb(47,47,47)" stroke-width="1.51"></path><path d="M186,2403L378,2657L473,2356Z" fill="rgb(57,57,57)" stroke="rgb(57,57,57)" stroke-width="1.51"></path><path d="M4659,1595L4649,668L4610,1295Z" fill="rgb(80,80,80)" stroke="rgb(80,80,80)" stroke-width="1.51"></path><path d="M82,1327L71,1769L610,1547Z" fill="rgb(45,45,45)" stroke="rgb(45,45,45)" stroke-width="1.51"></path><path d="M4412,2507L4453,2415L4178,2381Z" fill="rgb(100,100,100)" stroke="rgb(100,100,100)" stroke-width="1.51"></path><path d="M4469,2024L4453,2415L4659,1595Z" fill="rgb(97,97,97)" stroke="rgb(97,97,97)" stroke-width="1.51"></path><path d="M4412,2507L4178,2381L4164,2462Z" fill="rgb(100,100,100)" stroke="rgb(100,100,100)" stroke-width="1.51"></path><path d="M3898,2768L4412,2507L4164,2462Z" fill="rgb(100,100,100)" stroke="rgb(100,100,100)" stroke-width="1.51"></path><path d="M852,-499L637,-418L778,-177Z" fill="rgb(20,20,20)" stroke="rgb(20,20,20)" stroke-width="1.51"></path><path d="M63,-96L183,244L442,114Z" fill="rgb(12,12,12)" stroke="rgb(12,12,12)" stroke-width="1.51"></path><path d="M442,114L183,244L652,393Z" fill="rgb(22,22,22)" stroke="rgb(22,22,22)" stroke-width="1.51"></path><path d="M63,-96L442,114L96,-165Z" fill="rgb(6,6,6)" stroke="rgb(6,6,6)" stroke-width="1.51"></path><path d="M-144,1221L-69,1503L82,1327Z" fill="rgb(36,36,36)" stroke="rgb(36,36,36)" stroke-width="1.51"></path><path d="M4181,-91L4166,-388L3775,-245Z" fill="rgb(51,51,51)" stroke="rgb(51,51,51)" stroke-width="1.51"></path><path d="M4483,-8L4166,-388L4181,-91Z" fill="rgb(51,51,51)" stroke="rgb(51,51,51)" stroke-width="1.51"></path><path d="M4649,668L4606,358L4234,466Z" fill="rgb(66,66,66)" stroke="rgb(66,66,66)" stroke-width="1.51"></path><path d="M473,2356L378,2657L679,2532Z" fill="rgb(60,60,60)" stroke="rgb(60,60,60)" stroke-width="1.51"></path><path d="M186,2403L473,2356L249,1990Z" fill="rgb(56,56,56)" stroke="rgb(56,56,56)" stroke-width="1.51"></path><path d="M186,2403L249,1990L-69,2015Z" fill="rgb(53,53,53)" stroke="rgb(53,53,53)" stroke-width="1.51"></path><path d="M4483,-8L4358,210L4459,269Z" fill="rgb(56,56,56)" stroke="rgb(56,56,56)" stroke-width="1.51"></path><path d="M-69,2015L249,1990L91,1816Z" fill="rgb(48,48,48)" stroke="rgb(48,48,48)" stroke-width="1.51"></path><path d="M82,1327L-69,1503L71,1769Z" fill="rgb(40,40,40)" stroke="rgb(40,40,40)" stroke-width="1.51"></path><path d="M-144,1221L363,975L-187,807Z" fill="rgb(30,30,30)" stroke="rgb(30,30,30)" stroke-width="1.51"></path><path d="M4606,358L4483,-8L4459,269Z" fill="rgb(57,57,57)" stroke="rgb(57,57,57)" stroke-width="1.51"></path><path d="M-69,2015L91,1816L71,1769Z" fill="rgb(46,46,46)" stroke="rgb(46,46,46)" stroke-width="1.51"></path><path d="M183,244L-20,523L197,615Z" fill="rgb(23,23,23)" stroke="rgb(23,23,23)" stroke-width="1.51"></path><path d="M-150,187L-20,523L183,244Z" fill="rgb(16,16,16)" stroke="rgb(16,16,16)" stroke-width="1.51"></path><path d="M-187,807L363,975L197,615Z" fill="rgb(29,29,29)" stroke="rgb(29,29,29)" stroke-width="1.51"></path><path d="M-261,1956L-69,2015L71,1769Z" fill="rgb(46,46,46)" stroke="rgb(46,46,46)" stroke-width="1.51"></path><path d="M-261,1956L71,1769L-407,1725Z" fill="rgb(45,45,45)" stroke="rgb(45,45,45)" stroke-width="1.51"></path><path d="M-407,1725L71,1769L-69,1503Z" fill="rgb(42,42,42)" stroke="rgb(42,42,42)" stroke-width="1.51"></path><path d="M-20,523L-187,807L197,615Z" fill="rgb(24,24,24)" stroke="rgb(24,24,24)" stroke-width="1.51"></path><path d="M186,2403L49,2522L378,2657Z" fill="rgb(55,55,55)" stroke="rgb(55,55,55)" stroke-width="1.51"></path><path d="M-140,2371L49,2522L186,2403Z" fill="rgb(51,51,51)" stroke="rgb(51,51,51)" stroke-width="1.51"></path><path d="M96,-165L442,114L529,-41Z" fill="rgb(11,11,11)" stroke="rgb(11,11,11)" stroke-width="1.51"></path><path d="M-20,523L-421,598L-187,807Z" fill="rgb(24,24,24)" stroke="rgb(24,24,24)" stroke-width="1.51"></path><path d="M289,-551L96,-165L529,-41Z" fill="rgb(9,9,9)" stroke="rgb(9,9,9)" stroke-width="1.51"></path><path d="M4606,358L4389,-533L4483,-8Z" fill="rgb(51,51,51)" stroke="rgb(51,51,51)" stroke-width="1.51"></path><path d="M4483,-8L4389,-533L4166,-388Z" fill="rgb(51,51,51)" stroke="rgb(51,51,51)" stroke-width="1.51"></path><path d="M4166,-388L4389,-533L3816,-557Z" fill="rgb(51,51,51)" stroke="rgb(51,51,51)" stroke-width="1.51"></path><path d="M3816,-557L4389,-533L3426,-581Z" fill="rgb(51,51,51)" stroke="rgb(51,51,51)" stroke-width="1.51"></path><path d="M-69,2015L-140,2371L186,2403Z" fill="rgb(51,51,51)" stroke="rgb(51,51,51)" stroke-width="1.51"></path><path d="M-369,1263L-69,1503L-144,1221Z" fill="rgb(36,36,36)" stroke="rgb(36,36,36)" stroke-width="1.51"></path><path d="M-275,74L-150,187L63,-96Z" fill="rgb(3,3,3)" stroke="rgb(3,3,3)" stroke-width="1.51"></path><path d="M63,-96L-150,187L183,244Z" fill="rgb(7,7,7)" stroke="rgb(7,7,7)" stroke-width="1.51"></path><path d="M-397,991L-369,1263L-144,1221Z" fill="rgb(33,33,33)" stroke="rgb(33,33,33)" stroke-width="1.51"></path><path d="M-397,991L-144,1221L-187,807Z" fill="rgb(30,30,30)" stroke="rgb(30,30,30)" stroke-width="1.51"></path><path d="M-261,1956L-140,2371L-69,2015Z" fill="rgb(50,50,50)" stroke="rgb(50,50,50)" stroke-width="1.51"></path><path d="M3426,-581L289,-551L2990,-568Z" fill="rgb(35,35,35)" stroke="rgb(35,35,35)" stroke-width="1.51"></path><path d="M2990,-568L289,-551L1084,-493Z" fill="rgb(26,26,26)" stroke="rgb(26,26,26)" stroke-width="1.51"></path><path d="M852,-499L289,-551L637,-418Z" fill="rgb(17,17,17)" stroke="rgb(17,17,17)" stroke-width="1.51"></path><path d="M637,-418L289,-551L529,-41Z" fill="rgb(14,14,14)" stroke="rgb(14,14,14)" stroke-width="1.51"></path><path d="M96,-165L25,-310L63,-96Z" fill="rgb(2,2,2)" stroke="rgb(2,2,2)" stroke-width="1.51"></path><path d="M-441,678L-397,991L-187,807Z" fill="rgb(27,27,27)" stroke="rgb(27,27,27)" stroke-width="1.51"></path><path d="M-261,1956L-282,2428L-140,2371Z" fill="rgb(51,51,51)" stroke="rgb(51,51,51)" stroke-width="1.51"></path><path d="M-369,1263L-407,1725L-69,1503Z" fill="rgb(39,39,39)" stroke="rgb(39,39,39)" stroke-width="1.51"></path><path d="M-397,991L-407,1725L-369,1263Z" fill="rgb(36,36,36)" stroke="rgb(36,36,36)" stroke-width="1.51"></path><path d="M289,-551L25,-310L96,-165Z" fill="rgb(4,4,4)" stroke="rgb(4,4,4)" stroke-width="1.51"></path><path d="M-397,991L-441,678L-407,1725Z" fill="rgb(32,32,32)" stroke="rgb(32,32,32)" stroke-width="1.51"></path><path d="M-150,187L-421,598L-20,523Z" fill="rgb(20,20,20)" stroke="rgb(20,20,20)" stroke-width="1.51"></path><path d="M-275,74L-421,598L-150,187Z" fill="rgb(14,14,14)" stroke="rgb(14,14,14)" stroke-width="1.51"></path><path d="M-421,598L-441,678L-187,807Z" fill="rgb(25,25,25)" stroke="rgb(25,25,25)" stroke-width="1.51"></path><path d="M-348,-282L-275,74L63,-96Z" fill="rgb(0,0,0)" stroke="rgb(0,0,0)" stroke-width="1.51"></path><path d="M-140,2371L-258,2563L49,2522Z" fill="rgb(51,51,51)" stroke="rgb(51,51,51)" stroke-width="1.51"></path><path d="M49,2522L-258,2563L378,2657Z" fill="rgb(52,52,52)" stroke="rgb(52,52,52)" stroke-width="1.51"></path><path d="M-407,1725L-282,2428L-261,1956Z" fill="rgb(49,49,49)" stroke="rgb(49,49,49)" stroke-width="1.51"></path><path d="M-282,2428L-258,2563L-140,2371Z" fill="rgb(51,51,51)" stroke="rgb(51,51,51)" stroke-width="1.51"></path><path d="M-407,1725L-258,2563L-282,2428Z" fill="rgb(51,51,51)" stroke="rgb(51,51,51)" stroke-width="1.51"></path><path d="M25,-310L-348,-282L63,-96Z" fill="rgb(0,0,0)" stroke="rgb(0,0,0)" stroke-width="1.51"></path><path d="M-275,74L-348,-282L-421,598Z" fill="rgb(7,7,7)" stroke="rgb(7,7,7)" stroke-width="1.51"></path><path d="M-421,598L-520,-558L-441,678Z" fill="rgb(13,13,13)" stroke="rgb(13,13,13)" stroke-width="1.51"></path><path d="M-520,-558L-348,-282L25,-310Z" fill="rgb(0,0,0)" stroke="rgb(0,0,0)" stroke-width="1.51"></path><path d="M289,-551L-520,-558L25,-310Z" fill="rgb(0,0,0)" stroke="rgb(0,0,0)" stroke-width="1.51"></path><path d="M-348,-282L-520,-558L-421,598Z" fill="rgb(0,0,0)" stroke="rgb(0,0,0)" stroke-width="1.51"></path><path d="M-441,678L-520,-558L-407,1725Z" fill="rgb(23,23,23)" stroke="rgb(23,23,23)" stroke-width="1.51"></path><path d="M3426,-581L-520,-558L289,-551Z" fill="rgb(23,23,23)" stroke="rgb(23,23,23)" stroke-width="1.51"></path></svg>