<svg width="3840" height="2160" xmlns="http://www.w3.org/2000/svg"><path d="M1534,821L982,1229L1197,1305Z" fill="rgb(73,180,243)" stroke="rgb(73,180,243)" stroke-width="1.51"></path><path d="M1534,821L851,887L982,1229Z" fill="rgb(89,187,247)" stroke="rgb(89,187,247)" stroke-width="1.51"></path><path d="M1534,821L1337,98L851,887Z" fill="rgb(111,193,243)" stroke="rgb(111,193,243)" stroke-width="1.51"></path><path d="M1534,821L2028,357L1337,98Z" fill="rgb(120,196,247)" stroke="rgb(120,196,247)" stroke-width="1.51"></path><path d="M2410,165L2028,357L2861,1557Z" fill="rgb(67,155,203)" stroke="rgb(67,155,203)" stroke-width="1.51"></path><path d="M-131,1382L515,2058L982,1229Z" fill="rgb(111,153,175)" stroke="rgb(111,153,175)" stroke-width="1.51"></path><path d="M1337,98L472,97L851,887Z" fill="rgb(155,209,242)" stroke="rgb(155,209,242)" stroke-width="1.51"></path><path d="M-131,1382L982,1229L851,887Z" fill="rgb(122,189,237)" stroke="rgb(122,189,237)" stroke-width="1.51"></path><path d="M982,1229L515,2058L1197,1305Z" fill="rgb(78,143,175)" stroke="rgb(78,143,175)" stroke-width="1.51"></path><path d="M-244,604L-131,1382L851,887Z" fill="rgb(165,212,252)" stroke="rgb(165,212,252)" stroke-width="1.51"></path><path d="M2310,-857L1829,-1035L1337,98Z" fill="rgb(173,216,255)" stroke="rgb(173,216,255)" stroke-width="1.51"></path><path d="M2517,1699L2028,357L1534,821Z" fill="rgb(40,172,243)" stroke="rgb(40,172,243)" stroke-width="1.51"></path><path d="M2517,1699L1534,821L1197,1305Z" fill="rgb(36,158,222)" stroke="rgb(36,158,222)" stroke-width="1.51"></path><path d="M472,97L-244,604L851,887Z" fill="rgb(171,216,244)" stroke="rgb(171,216,244)" stroke-width="1.51"></path><path d="M2206,2216L2517,1699L1197,1305Z" fill="rgb(22,137,183)" stroke="rgb(22,137,183)" stroke-width="1.51"></path><path d="M1434,2636L2206,2216L1197,1305Z" fill="rgb(59,192,235)" stroke="rgb(59,192,235)" stroke-width="1.51"></path><path d="M472,97L-230,119L-244,604Z" fill="rgb(225,240,251)" stroke="rgb(225,240,251)" stroke-width="1.51"></path><path d="M515,2058L1434,2636L1197,1305Z" fill="rgb(85,190,222)" stroke="rgb(85,190,222)" stroke-width="1.51"></path><path d="M3452,2265L2861,1557L2517,1699Z" fill="rgb(22,108,126)" stroke="rgb(22,108,126)" stroke-width="1.51"></path><path d="M2517,1699L2861,1557L2028,357Z" fill="rgb(17,133,185)" stroke="rgb(17,133,185)" stroke-width="1.51"></path><path d="M515,2058L558,3193L1434,2636Z" fill="rgb(110,220,248)" stroke="rgb(110,220,248)" stroke-width="1.51"></path><path d="M-131,1382L125,2418L515,2058Z" fill="rgb(151,207,220)" stroke="rgb(151,207,220)" stroke-width="1.51"></path><path d="M2861,1557L3161,464L2410,165Z" fill="rgb(58,133,170)" stroke="rgb(58,133,170)" stroke-width="1.51"></path><path d="M2310,-857L1337,98L2028,357Z" fill="rgb(172,215,255)" stroke="rgb(172,215,255)" stroke-width="1.51"></path><path d="M1337,98L459,-1008L472,97Z" fill="rgb(208,232,249)" stroke="rgb(208,232,249)" stroke-width="1.51"></path><path d="M472,97L459,-1008L-230,119Z" fill="rgb(241,248,253)" stroke="rgb(241,248,253)" stroke-width="1.51"></path><path d="M2310,-857L2028,357L2410,165Z" fill="rgb(159,195,225)" stroke="rgb(159,195,225)" stroke-width="1.51"></path><path d="M1829,-1035L459,-1008L1337,98Z" fill="rgb(188,223,249)" stroke="rgb(188,223,249)" stroke-width="1.51"></path><path d="M3014,-430L2310,-857L2410,165Z" fill="rgb(148,177,196)" stroke="rgb(148,177,196)" stroke-width="1.51"></path><path d="M2206,2216L3452,2265L2517,1699Z" fill="rgb(28,144,166)" stroke="rgb(28,144,166)" stroke-width="1.51"></path><path d="M1434,2636L2279,2886L2206,2216Z" fill="rgb(36,202,250)" stroke="rgb(36,202,250)" stroke-width="1.51"></path><path d="M1661,3315L2279,2886L1434,2636Z" fill="rgb(50,207,254)" stroke="rgb(50,207,254)" stroke-width="1.51"></path><path d="M3161,464L3014,-430L2410,165Z" fill="rgb(130,157,170)" stroke="rgb(130,157,170)" stroke-width="1.51"></path><path d="M-1170,-345L-1014,352L-230,119Z" fill="rgb(251,252,255)" stroke="rgb(251,252,255)" stroke-width="1.51"></path><path d="M-230,119L-1014,352L-244,604Z" fill="rgb(215,236,250)" stroke="rgb(215,236,250)" stroke-width="1.51"></path><path d="M-244,604L-1230,1713L-131,1382Z" fill="rgb(161,198,230)" stroke="rgb(161,198,230)" stroke-width="1.51"></path><path d="M-131,1382L-927,2380L125,2418Z" fill="rgb(171,229,238)" stroke="rgb(171,229,238)" stroke-width="1.51"></path><path d="M125,2418L558,3193L515,2058Z" fill="rgb(148,234,252)" stroke="rgb(148,234,252)" stroke-width="1.51"></path><path d="M558,3193L1661,3315L1434,2636Z" fill="rgb(85,214,249)" stroke="rgb(85,214,249)" stroke-width="1.51"></path><path d="M459,-1008L39,-1234L-230,119Z" fill="rgb(250,252,255)" stroke="rgb(250,252,255)" stroke-width="1.51"></path><path d="M1829,-1035L39,-1234L459,-1008Z" fill="rgb(206,232,249)" stroke="rgb(206,232,249)" stroke-width="1.51"></path><path d="M3014,-430L2934,-852L2310,-857Z" fill="rgb(141,167,180)" stroke="rgb(141,167,180)" stroke-width="1.51"></path><path d="M2310,-857L2934,-852L1829,-1035Z" fill="rgb(155,189,215)" stroke="rgb(155,189,215)" stroke-width="1.51"></path><path d="M-1014,352L-1230,1713L-244,604Z" fill="rgb(179,219,253)" stroke="rgb(179,219,253)" stroke-width="1.51"></path><path d="M125,2418L80,3413L558,3193Z" fill="rgb(159,238,253)" stroke="rgb(159,238,253)" stroke-width="1.51"></path><path d="M-1230,1713L-927,2380L-131,1382Z" fill="rgb(153,192,201)" stroke="rgb(153,192,201)" stroke-width="1.51"></path><path d="M3161,464L3702,-133L3014,-430Z" fill="rgb(155,196,205)" stroke="rgb(155,196,205)" stroke-width="1.51"></path><path d="M3014,-430L3702,-133L2934,-852Z" fill="rgb(151,189,198)" stroke="rgb(151,189,198)" stroke-width="1.51"></path><path d="M2861,1557L3782,916L3161,464Z" fill="rgb(42,157,201)" stroke="rgb(42,157,201)" stroke-width="1.51"></path><path d="M4202,1312L3782,916L2861,1557Z" fill="rgb(31,167,205)" stroke="rgb(31,167,205)" stroke-width="1.51"></path><path d="M2279,2886L3452,2265L2206,2216Z" fill="rgb(32,163,189)" stroke="rgb(32,163,189)" stroke-width="1.51"></path><path d="M2951,3181L3452,2265L2279,2886Z" fill="rgb(29,151,170)" stroke="rgb(29,151,170)" stroke-width="1.51"></path><path d="M-1014,352L-1170,-345L-1230,1713Z" fill="rgb(193,226,248)" stroke="rgb(193,226,248)" stroke-width="1.51"></path><path d="M39,-1234L-1170,-345L-230,119Z" fill="rgb(255,255,255)" stroke="rgb(255,255,255)" stroke-width="1.51"></path><path d="M558,3193L80,3413L1661,3315Z" fill="rgb(116,222,248)" stroke="rgb(116,222,248)" stroke-width="1.51"></path><path d="M-927,2380L80,3413L125,2418Z" fill="rgb(178,246,255)" stroke="rgb(178,246,255)" stroke-width="1.51"></path><path d="M3782,916L3702,-133L3161,464Z" fill="rgb(109,197,222)" stroke="rgb(109,197,222)" stroke-width="1.51"></path><path d="M1661,3315L2951,3181L2279,2886Z" fill="rgb(35,183,221)" stroke="rgb(35,183,221)" stroke-width="1.51"></path><path d="M-1170,-345L-1258,-677L-1230,1713Z" fill="rgb(229,242,252)" stroke="rgb(229,242,252)" stroke-width="1.51"></path><path d="M39,-1234L-1258,-677L-1170,-345Z" fill="rgb(255,255,255)" stroke="rgb(255,255,255)" stroke-width="1.51"></path><path d="M3782,916L4910,98L3702,-133Z" fill="rgb(138,230,251)" stroke="rgb(138,230,251)" stroke-width="1.51"></path><path d="M3452,2265L4202,1312L2861,1557Z" fill="rgb(27,136,154)" stroke="rgb(27,136,154)" stroke-width="1.51"></path><path d="M3887,2518L4202,1312L3452,2265Z" fill="rgb(41,214,234)" stroke="rgb(41,214,234)" stroke-width="1.51"></path><path d="M3747,3221L3887,2518L3452,2265Z" fill="rgb(42,222,241)" stroke="rgb(42,222,241)" stroke-width="1.51"></path><path d="M2951,3181L3747,3221L3452,2265Z" fill="rgb(37,194,213)" stroke="rgb(37,194,213)" stroke-width="1.51"></path><path d="M4757,1501L4702,906L4202,1312Z" fill="rgb(35,189,229)" stroke="rgb(35,189,229)" stroke-width="1.51"></path><path d="M1661,3315L3747,3221L2951,3181Z" fill="rgb(31,155,177)" stroke="rgb(31,155,177)" stroke-width="1.51"></path><path d="M80,3413L3747,3221L1661,3315Z" fill="rgb(46,206,255)" stroke="rgb(46,206,255)" stroke-width="1.51"></path><path d="M4202,1312L4702,906L3782,916Z" fill="rgb(43,206,255)" stroke="rgb(43,206,255)" stroke-width="1.51"></path><path d="M4757,1501L4202,1312L3887,2518Z" fill="rgb(34,174,193)" stroke="rgb(34,174,193)" stroke-width="1.51"></path><path d="M-927,2380L-1278,3446L80,3413Z" fill="rgb(178,246,255)" stroke="rgb(178,246,255)" stroke-width="1.51"></path><path d="M-1230,1713L-1278,3446L-927,2380Z" fill="rgb(178,246,255)" stroke="rgb(178,246,255)" stroke-width="1.51"></path><path d="M-1258,-677L-1278,3446L-1230,1713Z" fill="rgb(145,172,189)" stroke="rgb(145,172,189)" stroke-width="1.51"></path><path d="M5024,2237L4757,1501L3887,2518Z" fill="rgb(42,223,242)" stroke="rgb(42,223,242)" stroke-width="1.51"></path><path d="M3702,-133L4276,-1206L2934,-852Z" fill="rgb(170,227,236)" stroke="rgb(170,227,236)" stroke-width="1.51"></path><path d="M2934,-852L4276,-1206L1829,-1035Z" fill="rgb(142,171,180)" stroke="rgb(142,171,180)" stroke-width="1.51"></path><path d="M1829,-1035L4276,-1206L39,-1234Z" fill="rgb(166,207,244)" stroke="rgb(166,207,244)" stroke-width="1.51"></path><path d="M4908,-892L4276,-1206L3702,-133Z" fill="rgb(178,246,255)" stroke="rgb(178,246,255)" stroke-width="1.51"></path><path d="M4702,906L4910,98L3782,916Z" fill="rgb(89,215,249)" stroke="rgb(89,215,249)" stroke-width="1.51"></path><path d="M4757,1501L4910,98L4702,906Z" fill="rgb(71,210,252)" stroke="rgb(71,210,252)" stroke-width="1.51"></path><path d="M4757,1501L5024,2237L4910,98Z" fill="rgb(35,184,223)" stroke="rgb(35,184,223)" stroke-width="1.51"></path><path d="M4826,3136L5024,2237L3887,2518Z" fill="rgb(44,235,255)" stroke="rgb(44,235,255)" stroke-width="1.51"></path><path d="M5024,2237L4908,-892L4910,98Z" fill="rgb(108,220,248)" stroke="rgb(108,220,248)" stroke-width="1.51"></path><path d="M4910,98L4908,-892L3702,-133Z" fill="rgb(178,246,255)" stroke="rgb(178,246,255)" stroke-width="1.51"></path><path d="M3747,3221L4826,3136L3887,2518Z" fill="rgb(44,235,255)" stroke="rgb(44,235,255)" stroke-width="1.51"></path></svg>